<svg xmlns="http://www.w3.org/2000/svg" viewBox="0 0 24 24" fill="currentColor"><path d="M20.52 3.48A11.85 11.85 0 0 0 12.04 0C5.5 0 .19 5.3.19 11.83c0 2.08.55 4.12 1.6 5.91L0 24l6.42-1.69a11.82 11.82 0 0 0 5.62 1.43h.01c6.53 0 11.84-5.3 11.85-11.83 0-3.16-1.23-6.13-3.38-8.43zM12.04 21.7h-.01a9.85 9.85 0 0 1-5.02-1.37l-.36-.21-3.81 1 1.02-3.71-.23-.38a9.83 9.83 0 0 1-1.51-5.2c0-5.43 4.42-9.84 9.86-9.84 2.63 0 5.1 1.02 6.96 2.88a9.78 9.78 0 0 1 2.88 6.97c0 5.43-4.42 9.86-9.78 9.86zm5.4-7.38c-.3-.15-1.75-.86-2.02-.96s-.47-.15-.67.15c-.2.3-.77.96-.94 1.16-.17.2-.35.22-.65.07-.3-.15-1.25-.46-2.38-1.47-.88-.78-1.47-1.74-1.64-2.04-.17-.3-.02-.46.13-.61.13-.13.3-.35.45-.52s.2-.3.3-.5c.1-.2.05-.37-.02-.52-.07-.15-.67-1.62-.92-2.22-.24-.58-.49-.5-.67-.5l-.57-.01c-.2 0-.52.07-.79.37-.27.3-1.04 1.02-1.04 2.48s1.07 2.88 1.22 3.08c.15.2 2.1 3.2 5.08 4.49.71.31 1.26.49 1.69.62.71.23 1.36.2 1.87.12.57-.08 1.75-.71 2-1.4.25-.69.25-1.28.17-1.4-.07-.13-.27-.2-.57-.35z"/></svg>
